<svg xmlns="http://www.w3.org/2000/svg" width="390" height="844" viewBox="0 0 390 844">
<rect width="390" height="844" fill="rgb(110, 92, 98)"/>
<rect data-name="frame" x="0" y="0" width="390" height="844" rx="0" fill="rgb(110, 92, 98)"/>
<rect data-name="icone" x="15" y="15" width="34" height="34" rx="8" fill="none" stroke="rgb(217, 207, 210)" stroke-width="2" opacity="0.85"/>
<svg viewBox="0 0 24 24" fill="none" stroke="rgb(217, 207, 210)" stroke-width="2.4" stroke-linecap="round" x="22.5" y="22.5" width="19" height="19"><path d="M9 9a3 3 0 1 1 4.2 2.8c-.8.4-1.2 1-1.2 1.9V15"></path><circle cx="12" cy="19" r=".6" fill="rgb(217, 207, 210)"></circle></svg>
<rect data-name="icone" x="59" y="15" width="34" height="34" rx="8" fill="none" stroke="rgb(217, 207, 210)" stroke-width="2" opacity="0.85"/>
<svg viewBox="0 0 24 24" fill="none" stroke="rgb(217, 207, 210)" stroke-width="2.2" stroke-linejoin="round" x="66.5" y="22.5" width="19" height="19"><path d="M7 4h10v5a5 5 0 0 1-10 0V4Z"></path><path d="M7 6H4v2a3 3 0 0 0 3 3M17 6h3v2a3 3 0 0 1-3 3M12 14v4M8 20h8"></path></svg>
<text xml:space="preserve" x="114.140625" y="38.7" font-family="Mitr" font-size="20" font-weight="600" fill="rgb(250, 250, 255)" letter-spacing="1">ELEMENTAR</text>
<rect data-name="sim" x="236.859375" y="24.9375" width="39" height="16.109375" rx="8" fill="rgb(58, 163, 148)"/>
<text xml:space="preserve" x="244.859375" y="36.74525" font-family="Mitr" font-size="12.4" font-weight="600" fill="rgb(255, 255, 255)" letter-spacing="1">118</text>
<rect data-name="icone" x="297" y="15" width="34" height="34" rx="8" fill="none" stroke="rgb(217, 207, 210)" stroke-width="2" opacity="0.85"/>
<svg viewBox="0 0 24 24" fill="none" stroke="rgb(217, 207, 210)" stroke-width="2.2" stroke-linejoin="round" x="304.5" y="22.5" width="19" height="19"><circle cx="12" cy="14" r="6"></circle><path d="M8.5 9 6 2h4l2 5 2-5h4l-2.5 7"></path><path d="m12 11.5.9 1.8 2 .3-1.4 1.4.3 2-1.8-1-1.8 1 .3-2-1.4-1.4 2-.3Z" fill="rgb(217, 207, 210)" stroke-width="1"></path></svg>
<rect data-name="icone" x="341" y="15" width="34" height="34" rx="8" fill="none" stroke="rgb(217, 207, 210)" stroke-width="2" opacity="0.85"/>
<svg viewBox="0 0 24 24" fill="rgb(217, 207, 210)" x="348.5" y="22.5" width="19" height="19"><path d="M19.4 13a7.6 7.6 0 0 0 0-2l2.1-1.6-2-3.5-2.5 1a7.5 7.5 0 0 0-1.7-1L15 3.3h-4l-.4 2.6a7.5 7.5 0 0 0-1.7 1l-2.5-1-2 3.5L6.5 11a7.6 7.6 0 0 0 0 2l-2.1 1.6 2 3.5 2.5-1c.5.4 1.1.8 1.7 1l.4 2.6h4l.4-2.6c.6-.2 1.2-.6 1.7-1l2.5 1 2-3.5ZM13 15.5a3.5 3.5 0 1 1 0-7 3.5 3.5 0 0 1 0 7Z" transform="translate(-1 0)"></path></svg>
<text xml:space="preserve" x="10.59375" y="262.5" font-family="Mitr" font-size="50" font-weight="600" fill="rgb(250, 250, 255)" letter-spacing="1">ELEMENTAR</text>
<rect data-name="sim" x="308.40625" y="225.78125" width="71" height="40.296875" rx="8" fill="rgb(58, 163, 148)"/>
<text xml:space="preserve" x="316.40625" y="257.081875" font-family="Mitr" font-size="31" font-weight="600" fill="rgb(255, 255, 255)" letter-spacing="1">118</text>
<text xml:space="preserve" x="36" y="311.62" font-family="Mitr" font-size="17" font-weight="300" fill="rgb(217, 207, 210)">Quantos dos </text>
<text xml:space="preserve" x="150" y="311.62" font-family="Mitr" font-size="17" font-weight="400" fill="rgb(217, 207, 210)">118 elementos</text>
<text xml:space="preserve" x="276" y="311.62" font-family="Mitr" font-size="17" font-weight="300" fill="rgb(217, 207, 210)">da</text>
<text xml:space="preserve" x="303" y="311.62" font-family="Mitr" font-size="17" font-weight="300" fill="rgb(217, 207, 210)">tabela</text>
<text xml:space="preserve" x="157" y="338.62" font-family="Mitr" font-size="17" font-weight="300" fill="rgb(217, 207, 210)">periódica</text>
<text xml:space="preserve" x="92.5" y="365.62" font-family="Mitr" font-size="17" font-weight="300" fill="rgb(217, 207, 210)">você consegue lembrar?</text>
<rect data-name="botao" x="20" y="395" width="350" height="70" rx="10" fill="rgb(58, 163, 148)"/>
<svg viewBox="0 0 24 24" fill="rgb(255, 255, 255)" x="105" y="420" width="20" height="20"><path d="M8 5v14l11-7Z"></path></svg>
<text xml:space="preserve" x="133" y="437.92" font-family="Mitr" font-size="22" font-weight="500" fill="rgb(255, 255, 255)" letter-spacing="0.5"> INICIAR JOGO</text>
<rect data-name="botao" x="20" y="477" width="350" height="70" rx="10" fill="rgb(76, 67, 71)"/>
<svg viewBox="0 0 24 24" fill="none" stroke="rgb(250, 250, 255)" stroke-width="2.2" stroke-linejoin="round" x="132.25" y="502" width="20" height="20"><path d="M7 4h10v5a5 5 0 0 1-10 0V4Z"></path><path d="M7 6H4v2a3 3 0 0 0 3 3M17 6h3v2a3 3 0 0 1-3 3M12 14v4M8 20h8"></path></svg>
<text xml:space="preserve" x="160.25" y="519.92" font-family="Mitr" font-size="22" font-weight="500" fill="rgb(250, 250, 255)" letter-spacing="0.5"> RANKING</text>
<rect data-name="botao" x="21" y="560" width="348" height="72" rx="10" fill="none" stroke="rgb(217, 207, 210)" stroke-width="2"/>
<svg viewBox="0 0 24 24" fill="none" stroke="rgb(217, 207, 210)" stroke-width="2.4" stroke-linecap="round" x="106.5" y="586" width="20" height="20"><path d="M9 9a3 3 0 1 1 4.2 2.8c-.8.4-1.2 1-1.2 1.9V15"></path><circle cx="12" cy="19" r=".6" fill="rgb(217, 207, 210)"></circle></svg>
<text xml:space="preserve" x="134.5" y="603.92" font-family="Mitr" font-size="22" font-weight="500" fill="rgb(217, 207, 210)" letter-spacing="0.5"> COMO JOGAR</text>
<text xml:space="preserve" x="22.5" y="671.9" font-family="Mitr" font-size="15" font-weight="400" fill="rgb(217, 207, 210)">Seu recorde: </text>
<text xml:space="preserve" x="120.5" y="671.9" font-family="Mitr" font-size="15" font-weight="500" fill="rgb(250, 250, 255)">1.980 pts</text>
<text xml:space="preserve" x="207.5" y="671.9" font-family="Mitr" font-size="15" font-weight="400" fill="rgb(217, 207, 210)">Melhor tabela: </text>
<text xml:space="preserve" x="317.5" y="671.9" font-family="Mitr" font-size="15" font-weight="500" fill="rgb(250, 250, 255)">97/118</text>
</svg>
