<svg xmlns="http://www.w3.org/2000/svg" width="390" height="844" viewBox="0 0 390 844">
<rect width="390" height="844" fill="rgb(110, 92, 98)"/>
<rect data-name="frame" x="0" y="0" width="390" height="844" rx="0" fill="rgb(110, 92, 98)"/>
<rect data-name="icone" x="15" y="15" width="34" height="34" rx="8" fill="none" stroke="rgb(217, 207, 210)" stroke-width="2" opacity="0.85"/>
<svg viewBox="0 0 24 24" fill="none" stroke="rgb(217, 207, 210)" stroke-width="2.4" stroke-linecap="round" x="22.5" y="22.5" width="19" height="19"><path d="M9 9a3 3 0 1 1 4.2 2.8c-.8.4-1.2 1-1.2 1.9V15"></path><circle cx="12" cy="19" r=".6" fill="rgb(217, 207, 210)"></circle></svg>
<rect data-name="icone" x="59" y="15" width="34" height="34" rx="8" fill="none" stroke="rgb(217, 207, 210)" stroke-width="2" opacity="0.85"/>
<svg viewBox="0 0 24 24" fill="none" stroke="rgb(217, 207, 210)" stroke-width="2.2" stroke-linejoin="round" x="66.5" y="22.5" width="19" height="19"><path d="M7 4h10v5a5 5 0 0 1-10 0V4Z"></path><path d="M7 6H4v2a3 3 0 0 0 3 3M17 6h3v2a3 3 0 0 1-3 3M12 14v4M8 20h8"></path></svg>
<text xml:space="preserve" x="114.140625" y="38.7" font-family="Mitr" font-size="20" font-weight="600" fill="rgb(250, 250, 255)" letter-spacing="1">ELEMENTAR</text>
<rect data-name="sim" x="236.859375" y="24.9375" width="39" height="16.109375" rx="8" fill="rgb(58, 163, 148)"/>
<text xml:space="preserve" x="244.859375" y="36.74525" font-family="Mitr" font-size="12.4" font-weight="600" fill="rgb(255, 255, 255)" letter-spacing="1">118</text>
<rect data-name="icone" x="297" y="15" width="34" height="34" rx="8" fill="none" stroke="rgb(217, 207, 210)" stroke-width="2" opacity="0.85"/>
<svg viewBox="0 0 24 24" fill="none" stroke="rgb(217, 207, 210)" stroke-width="2.2" stroke-linejoin="round" x="304.5" y="22.5" width="19" height="19"><circle cx="12" cy="14" r="6"></circle><path d="M8.5 9 6 2h4l2 5 2-5h4l-2.5 7"></path><path d="m12 11.5.9 1.8 2 .3-1.4 1.4.3 2-1.8-1-1.8 1 .3-2-1.4-1.4 2-.3Z" fill="rgb(217, 207, 210)" stroke-width="1"></path></svg>
<rect data-name="icone" x="341" y="15" width="34" height="34" rx="8" fill="none" stroke="rgb(217, 207, 210)" stroke-width="2" opacity="0.85"/>
<svg viewBox="0 0 24 24" fill="rgb(217, 207, 210)" x="348.5" y="22.5" width="19" height="19"><path d="M19.4 13a7.6 7.6 0 0 0 0-2l2.1-1.6-2-3.5-2.5 1a7.5 7.5 0 0 0-1.7-1L15 3.3h-4l-.4 2.6a7.5 7.5 0 0 0-1.7 1l-2.5-1-2 3.5L6.5 11a7.6 7.6 0 0 0 0 2l-2.1 1.6 2 3.5 2.5-1c.5.4 1.1.8 1.7 1l.4 2.6h4l.4-2.6c.6-.2 1.2-.6 1.7-1l2.5 1 2-3.5ZM13 15.5a3.5 3.5 0 1 1 0-7 3.5 3.5 0 0 1 0 7Z" transform="translate(-1 0)"></path></svg>
<rect data-name="stat" x="12" y="60" width="74" height="56" rx="10" fill="rgb(49, 42, 44)"/>
<text xml:space="preserve" x="29.5" y="77.6" font-family="Mitr" font-size="10" font-weight="400" fill="rgb(217, 207, 210)" letter-spacing="1">TEMPO</text>
<text xml:space="preserve" x="19" y="102.92" font-family="Mitr" font-size="22" font-weight="500" fill="rgb(58, 163, 148)">08:37</text>
<rect data-name="stat" x="92" y="61" width="76" height="54" rx="10" fill="rgb(49, 42, 44)"/>
<text xml:space="preserve" x="104" y="78.6" font-family="Mitr" font-size="10" font-weight="400" fill="rgb(217, 207, 210)" letter-spacing="1">ACERTOS</text>
<text xml:space="preserve" x="105" y="101.7" font-family="Mitr" font-size="20" font-weight="500" fill="rgb(250, 250, 255)">47</text>
<text xml:space="preserve" x="129" y="101.82" font-family="Mitr" font-size="12" font-weight="500" fill="rgb(217, 207, 210)">/118</text>
<rect data-name="stat" x="174" y="61" width="76" height="54" rx="10" fill="rgb(49, 42, 44)"/>
<text xml:space="preserve" x="188.5" y="78.6" font-family="Mitr" font-size="10" font-weight="400" fill="rgb(217, 207, 210)" letter-spacing="1">PONTOS</text>
<text xml:space="preserve" x="192" y="101.7" font-family="Mitr" font-size="20" font-weight="500" fill="rgb(250, 250, 255)">940</text>
<rect data-name="stat" x="256" y="64" width="76" height="48" rx="10" fill="rgb(49, 42, 44)"/>
<text xml:space="preserve" x="277" y="81.6" font-family="Mitr" font-size="10" font-weight="400" fill="rgb(217, 207, 210)" letter-spacing="1">VIDAS</text>
<svg viewBox="0 0 24 24" fill="rgb(226, 104, 95)" x="262.015625" y="100.40625" width="9.59375" height="9.59375"><path d="M12 21s-8-5.3-8-11a4.5 4.5 0 0 1 8-2.8A4.5 4.5 0 0 1 20 10c0 5.7-8 11-8 11Z"></path></svg>
<svg viewBox="0 0 24 24" fill="rgb(226, 104, 95)" x="275.609375" y="100.40625" width="9.59375" height="9.59375"><path d="M12 21s-8-5.3-8-11a4.5 4.5 0 0 1 8-2.8A4.5 4.5 0 0 1 20 10c0 5.7-8 11-8 11Z"></path></svg>
<svg viewBox="0 0 24 24" fill="rgb(226, 104, 95)" x="289.203125" y="100.40625" width="9.59375" height="9.59375"><path d="M12 21s-8-5.3-8-11a4.5 4.5 0 0 1 8-2.8A4.5 4.5 0 0 1 20 10c0 5.7-8 11-8 11Z"></path></svg>
<svg viewBox="0 0 24 24" fill="rgb(226, 104, 95)" x="302.796875" y="100.40625" width="9.59375" height="9.59375"><path d="M12 21s-8-5.3-8-11a4.5 4.5 0 0 1 8-2.8A4.5 4.5 0 0 1 20 10c0 5.7-8 11-8 11Z"></path></svg>
<svg viewBox="0 0 24 24" fill="rgb(76, 67, 71)" x="316.390625" y="100.40625" width="9.59375" height="9.59375"><path d="M12 21s-8-5.3-8-11a4.5 4.5 0 0 1 8-2.8A4.5 4.5 0 0 1 20 10c0 5.7-8 11-8 11Z"></path></svg>
<rect data-name="botao" x="338" y="68" width="40" height="40" rx="8" fill="rgb(76, 67, 71)"/>
<svg viewBox="0 0 24 24" fill="rgb(250, 250, 255)" x="348" y="78" width="20" height="20"><rect x="6" y="5" width="4" height="14" rx="1"></rect><rect x="14" y="5" width="4" height="14" rx="1"></rect></svg>
<rect data-name="campo" x="14" y="128" width="308" height="49" rx="10" fill="none" stroke="rgb(76, 67, 71)" stroke-width="4"/>
<rect x="17" y="171" width="302" height="8" fill="rgb(76, 67, 71)"/>
<rect data-name="cursor" x="30" y="140.53125" width="3" height="19.9375" rx="0" fill="rgb(250, 250, 255)"/>
<text xml:space="preserve" x="33" y="156.26" font-family="Mitr" font-size="16" font-weight="400" fill="rgb(217, 207, 210)" opacity="0.6"> Digite o nome de um elemento…</text>
<rect data-name="botao" x="330" y="126" width="48" height="53" rx="8" fill="rgb(58, 163, 148)"/>
<svg viewBox="0 0 24 24" fill="none" stroke="rgb(255, 255, 255)" stroke-width="2.4" stroke-linecap="round" stroke-linejoin="round" x="344" y="142.5" width="20" height="20"><path d="M19 5v6a3 3 0 0 1-3 3H5M9 10l-4 4 4 4"></path></svg>
<text xml:space="preserve" x="12" y="203.32" font-family="Mitr" font-size="12" font-weight="400" fill="rgb(217, 207, 210)">Últimos:</text>
<rect data-name="SPAN" x="63" y="187" width="74" height="24" rx="6" fill="rgb(58, 163, 148)"/>
<text xml:space="preserve" x="71" y="203.68" font-family="Mitr" font-size="13" font-weight="400" fill="rgb(255, 255, 255)">Fe · Ferro</text>
<rect data-name="SPAN" x="143" y="187" width="77" height="24" rx="6" fill="rgb(58, 163, 148)"/>
<text xml:space="preserve" x="151" y="203.68" font-family="Mitr" font-size="13" font-weight="400" fill="rgb(255, 255, 255)">Au · Ouro</text>
<rect data-name="SPAN" x="226" y="187" width="81" height="24" rx="6" fill="rgb(58, 163, 148)"/>
<text xml:space="preserve" x="234" y="203.68" font-family="Mitr" font-size="13" font-weight="400" fill="rgb(255, 255, 255)">Ag · Prata</text>
<rect data-name="cel" x="12" y="223" width="54" height="46.4375" rx="6" fill="rgb(58, 163, 148)"/>
<text xml:space="preserve" x="17" y="233.8048" font-family="Mitr" font-size="9.18" font-weight="400" fill="rgb(255, 255, 255)" opacity="0.8">1</text>
<text xml:space="preserve" x="31.5" y="250.527825" font-family="Mitr" font-size="20.52" font-weight="600" fill="rgb(255, 255, 255)">H</text>
<text xml:space="preserve" x="17.5" y="264.07225" font-family="Mitr" font-size="8.1" font-weight="400" fill="rgb(255, 255, 255)" opacity="0.95">Hidrogênio</text>
<rect data-name="cel" x="12" y="272.4375" width="54" height="46.4375" rx="6" fill="rgb(58, 163, 148)"/>
<text xml:space="preserve" x="17" y="283.2423" font-family="Mitr" font-size="9.18" font-weight="400" fill="rgb(255, 255, 255)" opacity="0.8">3</text>
<text xml:space="preserve" x="30.5" y="299.965325" font-family="Mitr" font-size="20.52" font-weight="600" fill="rgb(255, 255, 255)">Li</text>
<text xml:space="preserve" x="30.5" y="313.50975" font-family="Mitr" font-size="8.1" font-weight="400" fill="rgb(255, 255, 255)" opacity="0.95">Lítio</text>
<rect data-name="cel" x="69" y="272.4375" width="54" height="46.4375" rx="6" fill="rgb(58, 163, 148)"/>
<text xml:space="preserve" x="74" y="283.2423" font-family="Mitr" font-size="9.18" font-weight="400" fill="rgb(255, 255, 255)" opacity="0.8">4</text>
<text xml:space="preserve" x="83" y="299.965325" font-family="Mitr" font-size="20.52" font-weight="600" fill="rgb(255, 255, 255)">Be</text>
<text xml:space="preserve" x="84" y="313.50975" font-family="Mitr" font-size="8.1" font-weight="400" fill="rgb(255, 255, 255)" opacity="0.95">Berílio</text>
<rect data-name="cel" x="12" y="321.875" width="54" height="46.4375" rx="6" fill="rgb(58, 163, 148)"/>
<text xml:space="preserve" x="17" y="332.6798" font-family="Mitr" font-size="9.18" font-weight="400" fill="rgb(255, 255, 255)" opacity="0.8">11</text>
<text xml:space="preserve" x="25.5" y="349.402825" font-family="Mitr" font-size="20.52" font-weight="600" fill="rgb(255, 255, 255)">Na</text>
<text xml:space="preserve" x="28" y="362.94725" font-family="Mitr" font-size="8.1" font-weight="400" fill="rgb(255, 255, 255)" opacity="0.95">Sódio</text>
<rect data-name="cel" x="69" y="321.875" width="54" height="46.4375" rx="6" fill="rgb(58, 163, 148)"/>
<text xml:space="preserve" x="74" y="332.6798" font-family="Mitr" font-size="9.18" font-weight="400" fill="rgb(255, 255, 255)" opacity="0.8">12</text>
<text xml:space="preserve" x="81.5" y="349.402825" font-family="Mitr" font-size="20.52" font-weight="600" fill="rgb(255, 255, 255)">Mg</text>
<text xml:space="preserve" x="77.5" y="362.94725" font-family="Mitr" font-size="8.1" font-weight="400" fill="rgb(255, 255, 255)" opacity="0.95">Magnésio</text>
<rect data-name="cel" x="12" y="371.3125" width="54" height="46.4375" rx="6" fill="rgb(58, 163, 148)"/>
<text xml:space="preserve" x="17" y="382.1173" font-family="Mitr" font-size="9.18" font-weight="400" fill="rgb(255, 255, 255)" opacity="0.8">19</text>
<text xml:space="preserve" x="32" y="398.840325" font-family="Mitr" font-size="20.52" font-weight="600" fill="rgb(255, 255, 255)">K</text>
<text xml:space="preserve" x="22" y="412.38475" font-family="Mitr" font-size="8.1" font-weight="400" fill="rgb(255, 255, 255)" opacity="0.95">Potássio</text>
<rect data-name="cel" x="69" y="371.3125" width="54" height="46.4375" rx="6" fill="rgb(58, 163, 148)"/>
<text xml:space="preserve" x="74" y="382.1173" font-family="Mitr" font-size="9.18" font-weight="400" fill="rgb(255, 255, 255)" opacity="0.8">20</text>
<text xml:space="preserve" x="83" y="398.840325" font-family="Mitr" font-size="20.52" font-weight="600" fill="rgb(255, 255, 255)">Ca</text>
<text xml:space="preserve" x="84" y="412.38475" font-family="Mitr" font-size="8.1" font-weight="400" fill="rgb(255, 255, 255)" opacity="0.95">Cálcio</text>
<rect data-name="cel" x="126" y="371.3125" width="54" height="46.4375" rx="6" fill="rgb(97, 84, 88)"/>
<text xml:space="preserve" x="131" y="382.1173" font-family="Mitr" font-size="9.18" font-weight="400" fill="rgb(217, 207, 210)" opacity="0.8">21</text>
<rect data-name="cel" x="183" y="371.3125" width="54" height="46.4375" rx="6" fill="rgb(58, 163, 148)"/>
<text xml:space="preserve" x="188" y="382.1173" font-family="Mitr" font-size="9.18" font-weight="400" fill="rgb(255, 255, 255)" opacity="0.8">22</text>
<text xml:space="preserve" x="201" y="398.840325" font-family="Mitr" font-size="20.52" font-weight="600" fill="rgb(255, 255, 255)">Ti</text>
<text xml:space="preserve" x="196" y="412.38475" font-family="Mitr" font-size="8.1" font-weight="400" fill="rgb(255, 255, 255)" opacity="0.95">Titânio</text>
<rect data-name="cel" x="240" y="371.3125" width="54" height="46.4375" rx="6" fill="rgb(97, 84, 88)"/>
<text xml:space="preserve" x="245" y="382.1173" font-family="Mitr" font-size="9.18" font-weight="400" fill="rgb(217, 207, 210)" opacity="0.8">23</text>
<rect data-name="cel" x="297" y="371.3125" width="54" height="46.4375" rx="6" fill="rgb(58, 163, 148)"/>
<text xml:space="preserve" x="302" y="382.1173" font-family="Mitr" font-size="9.18" font-weight="400" fill="rgb(255, 255, 255)" opacity="0.8">24</text>
<text xml:space="preserve" x="313" y="398.840325" font-family="Mitr" font-size="20.52" font-weight="600" fill="rgb(255, 255, 255)">Cr</text>
<text xml:space="preserve" x="311.5" y="412.38475" font-family="Mitr" font-size="8.1" font-weight="400" fill="rgb(255, 255, 255)" opacity="0.95">Cromo</text>
<rect data-name="cel" x="354" y="371.3125" width="54" height="46.4375" rx="6" fill="rgb(58, 163, 148)"/>
<text xml:space="preserve" x="359" y="382.1173" font-family="Mitr" font-size="9.18" font-weight="400" fill="rgb(255, 255, 255)" opacity="0.8">25</text>
<text xml:space="preserve" x="367" y="398.840325" font-family="Mitr" font-size="20.52" font-weight="600" fill="rgb(255, 255, 255)">Mn</text>
<text xml:space="preserve" x="361" y="412.38475" font-family="Mitr" font-size="8.1" font-weight="400" fill="rgb(255, 255, 255)" opacity="0.95">Manganês</text>
<rect data-name="cel" x="12" y="420.75" width="54" height="46.4375" rx="6" fill="rgb(97, 84, 88)"/>
<text xml:space="preserve" x="17" y="431.5548" font-family="Mitr" font-size="9.18" font-weight="400" fill="rgb(217, 207, 210)" opacity="0.8">37</text>
<rect data-name="cel" x="69" y="420.75" width="54" height="46.4375" rx="6" fill="rgb(97, 84, 88)"/>
<text xml:space="preserve" x="74" y="431.5548" font-family="Mitr" font-size="9.18" font-weight="400" fill="rgb(217, 207, 210)" opacity="0.8">38</text>
<rect data-name="cel" x="126" y="420.75" width="54" height="46.4375" rx="6" fill="rgb(97, 84, 88)"/>
<text xml:space="preserve" x="131" y="431.5548" font-family="Mitr" font-size="9.18" font-weight="400" fill="rgb(217, 207, 210)" opacity="0.8">39</text>
<rect data-name="cel" x="183" y="420.75" width="54" height="46.4375" rx="6" fill="rgb(97, 84, 88)"/>
<text xml:space="preserve" x="188" y="431.5548" font-family="Mitr" font-size="9.18" font-weight="400" fill="rgb(217, 207, 210)" opacity="0.8">40</text>
<rect data-name="cel" x="240" y="420.75" width="54" height="46.4375" rx="6" fill="rgb(97, 84, 88)"/>
<text xml:space="preserve" x="245" y="431.5548" font-family="Mitr" font-size="9.18" font-weight="400" fill="rgb(217, 207, 210)" opacity="0.8">41</text>
<rect data-name="cel" x="297" y="420.75" width="54" height="46.4375" rx="6" fill="rgb(97, 84, 88)"/>
<text xml:space="preserve" x="302" y="431.5548" font-family="Mitr" font-size="9.18" font-weight="400" fill="rgb(217, 207, 210)" opacity="0.8">42</text>
<rect data-name="cel" x="354" y="420.75" width="54" height="46.4375" rx="6" fill="rgb(97, 84, 88)"/>
<text xml:space="preserve" x="359" y="431.5548" font-family="Mitr" font-size="9.18" font-weight="400" fill="rgb(217, 207, 210)" opacity="0.8">43</text>
<rect data-name="cel" x="12" y="470.1875" width="54" height="46.4375" rx="6" fill="rgb(58, 163, 148)"/>
<text xml:space="preserve" x="17" y="480.9923" font-family="Mitr" font-size="9.18" font-weight="400" fill="rgb(255, 255, 255)" opacity="0.8">55</text>
<text xml:space="preserve" x="27" y="497.715325" font-family="Mitr" font-size="20.52" font-weight="600" fill="rgb(255, 255, 255)">Cs</text>
<text xml:space="preserve" x="28.5" y="511.25975" font-family="Mitr" font-size="8.1" font-weight="400" fill="rgb(255, 255, 255)" opacity="0.95">Césio</text>
<rect data-name="cel" x="69" y="470.1875" width="54" height="46.4375" rx="6" fill="rgb(58, 163, 148)"/>
<text xml:space="preserve" x="74" y="480.9923" font-family="Mitr" font-size="9.18" font-weight="400" fill="rgb(255, 255, 255)" opacity="0.8">56</text>
<text xml:space="preserve" x="82.5" y="497.715325" font-family="Mitr" font-size="20.52" font-weight="600" fill="rgb(255, 255, 255)">Ba</text>
<text xml:space="preserve" x="86" y="511.25975" font-family="Mitr" font-size="8.1" font-weight="400" fill="rgb(255, 255, 255)" opacity="0.95">Bário</text>
<rect data-name="cel" x="183" y="586.0625" width="54" height="46.4375" rx="6" fill="rgb(97, 84, 88)"/>
<text xml:space="preserve" x="188" y="596.8673" font-family="Mitr" font-size="9.18" font-weight="400" fill="rgb(217, 207, 210)" opacity="0.8">57</text>
<rect data-name="cel" x="240" y="586.0625" width="54" height="46.4375" rx="6" fill="rgb(97, 84, 88)"/>
<text xml:space="preserve" x="245" y="596.8673" font-family="Mitr" font-size="9.18" font-weight="400" fill="rgb(217, 207, 210)" opacity="0.8">58</text>
<rect data-name="cel" x="297" y="586.0625" width="54" height="46.4375" rx="6" fill="rgb(97, 84, 88)"/>
<text xml:space="preserve" x="302" y="596.8673" font-family="Mitr" font-size="9.18" font-weight="400" fill="rgb(217, 207, 210)" opacity="0.8">59</text>
<rect data-name="cel" x="354" y="586.0625" width="54" height="46.4375" rx="6" fill="rgb(97, 84, 88)"/>
<text xml:space="preserve" x="359" y="596.8673" font-family="Mitr" font-size="9.18" font-weight="400" fill="rgb(217, 207, 210)" opacity="0.8">60</text>
<rect data-name="cel" x="183" y="470.1875" width="54" height="46.4375" rx="6" fill="rgb(97, 84, 88)"/>
<text xml:space="preserve" x="188" y="480.9923" font-family="Mitr" font-size="9.18" font-weight="400" fill="rgb(217, 207, 210)" opacity="0.8">72</text>
<rect data-name="cel" x="240" y="470.1875" width="54" height="46.4375" rx="6" fill="rgb(97, 84, 88)"/>
<text xml:space="preserve" x="245" y="480.9923" font-family="Mitr" font-size="9.18" font-weight="400" fill="rgb(217, 207, 210)" opacity="0.8">73</text>
<rect data-name="cel" x="297" y="470.1875" width="54" height="46.4375" rx="6" fill="rgb(58, 163, 148)"/>
<text xml:space="preserve" x="302" y="480.9923" font-family="Mitr" font-size="9.18" font-weight="400" fill="rgb(255, 255, 255)" opacity="0.8">74</text>
<text xml:space="preserve" x="315" y="497.715325" font-family="Mitr" font-size="20.52" font-weight="600" fill="rgb(255, 255, 255)">W</text>
<text xml:space="preserve" x="302" y="511.25975" font-family="Mitr" font-size="8.1" font-weight="400" fill="rgb(255, 255, 255)" opacity="0.95">Tungstênio</text>
<rect data-name="cel" x="354" y="470.1875" width="54" height="46.4375" rx="6" fill="rgb(97, 84, 88)"/>
<text xml:space="preserve" x="359" y="480.9923" font-family="Mitr" font-size="9.18" font-weight="400" fill="rgb(217, 207, 210)" opacity="0.8">75</text>
<rect data-name="cel" x="12" y="519.625" width="54" height="46.4375" rx="6" fill="rgb(97, 84, 88)"/>
<text xml:space="preserve" x="17" y="530.4298" font-family="Mitr" font-size="9.18" font-weight="400" fill="rgb(217, 207, 210)" opacity="0.8">87</text>
<rect data-name="cel" x="69" y="519.625" width="54" height="46.4375" rx="6" fill="rgb(58, 163, 148)"/>
<text xml:space="preserve" x="74" y="530.4298" font-family="Mitr" font-size="9.18" font-weight="400" fill="rgb(255, 255, 255)" opacity="0.8">88</text>
<text xml:space="preserve" x="83.5" y="547.152825" font-family="Mitr" font-size="20.52" font-weight="600" fill="rgb(255, 255, 255)">Ra</text>
<text xml:space="preserve" x="85" y="560.69725" font-family="Mitr" font-size="8.1" font-weight="400" fill="rgb(255, 255, 255)" opacity="0.95">Rádio</text>
<rect data-name="cel" x="183" y="635.5" width="54" height="46.4375" rx="6" fill="rgb(97, 84, 88)"/>
<text xml:space="preserve" x="188" y="646.3048" font-family="Mitr" font-size="9.18" font-weight="400" fill="rgb(217, 207, 210)" opacity="0.8">89</text>
<rect data-name="cel" x="240" y="635.5" width="54" height="46.4375" rx="6" fill="rgb(97, 84, 88)"/>
<text xml:space="preserve" x="245" y="646.3048" font-family="Mitr" font-size="9.18" font-weight="400" fill="rgb(217, 207, 210)" opacity="0.8">90</text>
<rect data-name="cel" x="297" y="635.5" width="54" height="46.4375" rx="6" fill="rgb(97, 84, 88)"/>
<text xml:space="preserve" x="302" y="646.3048" font-family="Mitr" font-size="9.18" font-weight="400" fill="rgb(217, 207, 210)" opacity="0.8">91</text>
<rect data-name="cel" x="354" y="635.5" width="54" height="46.4375" rx="6" fill="rgb(58, 163, 148)"/>
<text xml:space="preserve" x="359" y="646.3048" font-family="Mitr" font-size="9.18" font-weight="400" fill="rgb(255, 255, 255)" opacity="0.8">92</text>
<text xml:space="preserve" x="373.5" y="663.027825" font-family="Mitr" font-size="20.52" font-weight="600" fill="rgb(255, 255, 255)">U</text>
<text xml:space="preserve" x="368" y="676.57225" font-family="Mitr" font-size="8.1" font-weight="400" fill="rgb(255, 255, 255)" opacity="0.95">Urânio</text>
<rect data-name="cel" x="183" y="519.625" width="54" height="46.4375" rx="6" fill="rgb(97, 84, 88)"/>
<text xml:space="preserve" x="188" y="530.4298" font-family="Mitr" font-size="9.18" font-weight="400" fill="rgb(217, 207, 210)" opacity="0.8">104</text>
<rect data-name="cel" x="240" y="519.625" width="54" height="46.4375" rx="6" fill="rgb(97, 84, 88)"/>
<text xml:space="preserve" x="245" y="530.4298" font-family="Mitr" font-size="9.18" font-weight="400" fill="rgb(217, 207, 210)" opacity="0.8">105</text>
<rect data-name="cel" x="297" y="519.625" width="54" height="46.4375" rx="6" fill="rgb(97, 84, 88)"/>
<text xml:space="preserve" x="302" y="530.4298" font-family="Mitr" font-size="9.18" font-weight="400" fill="rgb(217, 207, 210)" opacity="0.8">106</text>
<rect data-name="cel" x="354" y="519.625" width="54" height="46.4375" rx="6" fill="rgb(97, 84, 88)"/>
<text xml:space="preserve" x="359" y="530.4298" font-family="Mitr" font-size="9.18" font-weight="400" fill="rgb(217, 207, 210)" opacity="0.8">107</text>
<rect data-name="cel" x="127" y="471.1875" width="52" height="44.4375" rx="6" fill="none" stroke="rgb(76, 67, 71)" stroke-width="2" stroke-dasharray="6 4"/>
<text xml:space="preserve" x="138" y="499.622375" font-family="Mitr" font-size="10.8" font-weight="400" fill="rgb(217, 207, 210)" opacity="0.8">57–71</text>
<rect data-name="cel" x="127" y="520.625" width="52" height="44.4375" rx="6" fill="none" stroke="rgb(76, 67, 71)" stroke-width="2" stroke-dasharray="6 4"/>
<text xml:space="preserve" x="133.5" y="549.059875" font-family="Mitr" font-size="10.8" font-weight="400" fill="rgb(217, 207, 210)" opacity="0.8">89–103</text>
<text xml:space="preserve" x="84.4375" y="830.82" font-family="Mitr" font-size="12" font-weight="400" fill="rgb(217, 207, 210)">← arraste para ver a tabela inteira →</text>
<rect data-name="toast" x="82.5" y="250" width="225" height="41" rx="8" fill="rgb(250, 250, 255)"/>
<rect data-name="tag" x="96.5" y="258" width="43" height="25" rx="6" fill="rgb(58, 163, 148)"/>
<text xml:space="preserve" x="104.5" y="275.9" font-family="Mitr" font-size="15" font-weight="500" fill="rgb(255, 255, 255)">+20</text>
<text xml:space="preserve" x="149.5" y="275.9" font-family="Mitr" font-size="15" font-weight="500" fill="rgb(49, 42, 44)">Acertou! </text>
<text xml:space="preserve" x="221.5" y="275.9" font-family="Mitr" font-size="15" font-weight="700" fill="rgb(49, 42, 44)">Ouro (Au)</text>
</svg>
